<svg width="17" height="17" viewBox="0 0 17 17" fill="none" xmlns="http://www.w3.org/2000/svg">
<path d="M8.5 16C4.35776 16 1.00001 12.6423 1.00001 8.5C0.998711 7.504 1.19641 6.51777 1.5815 5.59922C1.96659 4.68067 2.53131 3.84831 3.24251 3.15101M8.5 16C7.77775 15.4645 7.8925 14.842 8.2555 14.2188C8.81275 13.2603 8.81275 13.2603 8.81275 11.9838C8.81275 10.7058 9.57175 10.1073 12.25 10.6428C13.4538 10.8835 14.3305 9.22075 15.8928 9.76975M8.5 16C12.2095 16 15.2898 13.3075 15.8928 9.76975M3.24251 3.15101C3.88 3.21776 4.23626 3.55976 4.82875 4.18525C5.953 5.374 7.07725 5.473 7.82725 5.077C8.95225 4.48225 8.00725 3.52001 9.32725 2.99726C10.1365 2.67701 10.2903 1.83701 9.90775 1.13201M3.24251 3.15101C4.64383 1.77034 6.53279 0.997506 8.5 1.00001C8.97236 0.999577 9.44371 1.04377 9.90775 1.13201M15.8928 9.76975C15.9643 9.35675 16 8.9335 16 8.5C16 4.83925 13.3765 1.79051 9.90775 1.13201" stroke="white" stroke-width="1.5" stroke-linecap="round" stroke-linejoin="round"/>
</svg>
