<svg width="20" height="19" viewBox="0 0 20 19" fill="none" xmlns="http://www.w3.org/2000/svg">
<g clip-path="url(#clip0_372_165)">
<path d="M18.219 18.8921L11.5218 12.3426C10.9902 12.7585 10.379 13.0877 9.68799 13.3302C8.997 13.5728 8.26172 13.6941 7.48214 13.6941C5.55092 13.6941 3.91665 13.0398 2.57932 11.7313C1.24199 10.4228 0.572975 8.82458 0.572266 6.93665C0.571557 5.04872 1.24058 3.4505 2.57932 2.14198C3.91806 0.833459 5.55234 0.179199 7.48214 0.179199C9.41195 0.179199 11.0466 0.833459 12.386 2.14198C13.7255 3.4505 14.3941 5.04872 14.392 6.93665C14.392 7.69903 14.268 8.41809 14.0199 9.09384C13.7719 9.76958 13.4353 10.3674 13.01 10.8872L19.7073 17.4367L18.219 18.8921ZM7.48214 11.6149C8.81096 11.6149 9.94064 11.1602 10.8712 10.2509C11.8017 9.34161 12.2666 8.23685 12.2659 6.93665C12.2652 5.63645 11.8003 4.53204 10.8712 3.62342C9.94206 2.7148 8.81238 2.2598 7.48214 2.25841C6.1519 2.25703 5.02258 2.71203 4.09418 3.62342C3.16577 4.53481 2.70051 5.63922 2.69838 6.93665C2.69626 8.23408 3.16152 9.33884 4.09418 10.2509C5.02683 11.163 6.15615 11.6177 7.48214 11.6149Z" fill="#171D25"/>
</g>
<defs>
<clipPath id="clip0_372_165">
<rect width="20" height="19" fill="white"/>
</clipPath>
</defs>
</svg>
