<svg width="23" height="20" viewBox="0 0 23 20" fill="none" xmlns="http://www.w3.org/2000/svg">
<path d="M11.6041 6.2084C11.3676 5.75512 11.1011 5.31934 10.8064 4.90419L10.8058 1.65144C10.8058 1.43255 10.8897 1.22265 11.0393 1.06792C11.1888 0.913183 11.3917 0.826285 11.6032 0.826342C11.8147 0.826399 12.0176 0.913405 12.1672 1.06822C12.3168 1.22304 12.4008 1.43298 12.4009 1.65187L12.4014 4.90462C12.1069 5.31961 11.8404 5.75524 11.6041 6.2084ZM22.041 1.08498C21.672 0.591757 20.9582 0.00353294 19.6781 0.00319073C17.9983 0.00274164 15.8441 1.16585 13.9154 3.11307C13.364 3.6661 12.8576 4.26532 12.4014 4.90462L12.4031 14.4442C12.4031 14.6631 12.3192 14.873 12.1696 15.0277C12.0201 15.1824 11.8172 15.2693 11.6057 15.2693C11.3942 15.2692 11.1913 15.1822 11.0417 15.0274C10.8921 14.8726 10.8081 14.6626 10.808 14.4437L10.8064 4.90419C10.3513 4.26481 9.84599 3.66533 9.29571 3.11183C7.36533 1.16359 5.21077 -0.000677021 3.52797 -0.00112691C2.24792 -0.00146912 1.53423 0.586373 1.16546 1.0794C0.485714 1.98396 -0.0483589 3.56326 1.14581 8.42465C1.74938 10.8832 3.0914 11.8296 4.20004 12.1827C3.59567 13.1984 3.40211 14.4196 3.66123 15.5822C3.92035 16.7449 4.61132 17.7554 5.58466 18.3952C6.55801 19.035 7.73546 19.2527 8.86232 19.0011C9.98917 18.7495 10.9748 18.0489 11.606 17.0509C12.2376 18.0493 13.2235 18.7504 14.3504 19.0026C15.4774 19.2547 16.6548 19.0377 17.6279 18.3984C18.601 17.7591 19.2916 16.749 19.5503 15.5865C19.809 14.424 19.615 13.2027 19.0103 12.1867C20.1188 11.8362 21.4595 10.8885 22.0632 8.43024C22.7327 5.70277 23.2525 2.69672 22.041 1.08498Z" fill="white"/>
</svg>
