<svg width="35" height="35" viewBox="0 0 35 35" fill="none" xmlns="http://www.w3.org/2000/svg">
<path d="M15.3262 1.40966C15.5263 0.98651 15.8358 0.63024 16.2198 0.381129C16.6037 0.132018 17.0468 0 17.4988 0C17.9509 0 18.3939 0.132018 18.7779 0.381129C19.1618 0.63024 19.4714 0.98651 19.6715 1.40966L21.4903 5.25707C22.9131 8.26674 25.7404 10.371 29.0318 10.8701L32.9228 11.4601C33.3705 11.5275 33.7911 11.7244 34.1371 12.0284C34.4832 12.3323 34.7408 12.7314 34.8809 13.1803C35.0209 13.6292 35.0379 14.1101 34.9297 14.5685C34.8216 15.0269 34.5927 15.4446 34.269 15.7743L31.1988 18.8986C28.9625 21.1743 27.9464 24.3806 28.4638 27.529L29.2048 32.0388C29.2808 32.5039 29.2308 32.9819 29.0602 33.4189C28.8897 33.8558 28.6054 34.2342 28.2397 34.5114C27.8739 34.7885 27.4412 34.9534 26.9904 34.9873C26.5396 35.0212 26.0888 34.9228 25.6887 34.7032L22.3102 32.8505C19.3134 31.2071 15.6848 31.208 12.6889 32.853L9.30894 34.7089C8.90846 34.9289 8.45696 35.0275 8.00557 34.9934C7.55419 34.9593 7.12097 34.794 6.75499 34.5161C6.38901 34.2382 6.1049 33.8588 5.93485 33.421C5.76479 32.9832 5.7156 32.5044 5.79283 32.0388L6.53305 27.5263C7.04926 24.3794 6.03362 21.175 3.79893 18.9L0.73136 15.7771C0.407687 15.4476 0.178776 15.0301 0.0705074 14.5719C-0.0377607 14.1137 -0.0210667 13.633 0.118702 13.1842C0.258471 12.7353 0.515739 12.3363 0.861418 12.0321C1.2071 11.7279 1.6274 11.5308 2.0748 11.4629L5.96428 10.873C9.25508 10.3739 12.0818 8.27011 13.5048 5.26117L15.3262 1.40966Z" fill="url(#paint0_linear_455_983)"/>
<defs>
<linearGradient id="paint0_linear_455_983" x1="34.9959" y1="35.7825" x2="-2.46584" y2="1.9442" gradientUnits="userSpaceOnUse">
<stop stop-color="#FF6F47"/>
<stop offset="1" stop-color="#FFCD0F"/>
</linearGradient>
</defs>
</svg>
