<svg width="29" height="29" viewBox="0 0 29 29" fill="none" xmlns="http://www.w3.org/2000/svg">
<path fill-rule="evenodd" clip-rule="evenodd" d="M2.90026 5.7998C2.64388 5.7998 2.39801 5.90165 2.21672 6.08294C2.03544 6.26422 1.93359 6.5101 1.93359 6.76647C1.93359 7.02285 2.03544 7.26872 2.21672 7.45001C2.39801 7.63129 2.64388 7.73314 2.90026 7.73314H26.1003C26.3566 7.73314 26.6025 7.63129 26.7838 7.45001C26.9651 7.26872 27.0669 7.02285 27.0669 6.76647C27.0669 6.5101 26.9651 6.26422 26.7838 6.08294C26.6025 5.90165 26.3566 5.7998 26.1003 5.7998H2.90026ZM1.93359 14.4998C1.93359 14.2434 2.03544 13.9976 2.21672 13.8163C2.39801 13.635 2.64388 13.5331 2.90026 13.5331H26.1003C26.3566 13.5331 26.6025 13.635 26.7838 13.8163C26.9651 13.9976 27.0669 14.2434 27.0669 14.4998C27.0669 14.7562 26.9651 15.0021 26.7838 15.1833C26.6025 15.3646 26.3566 15.4665 26.1003 15.4665H2.90026C2.64388 15.4665 2.39801 15.3646 2.21672 15.1833C2.03544 15.0021 1.93359 14.7562 1.93359 14.4998ZM1.93359 22.2331C1.93359 21.9768 2.03544 21.7309 2.21672 21.5496C2.39801 21.3683 2.64388 21.2665 2.90026 21.2665H26.1003C26.3566 21.2665 26.6025 21.3683 26.7838 21.5496C26.9651 21.7309 27.0669 21.9768 27.0669 22.2331C27.0669 22.4895 26.9651 22.7354 26.7838 22.9167C26.6025 23.098 26.3566 23.1998 26.1003 23.1998H2.90026C2.64388 23.1998 2.39801 23.098 2.21672 22.9167C2.03544 22.7354 1.93359 22.4895 1.93359 22.2331Z" fill="white"/>
</svg>
