<svg width="21" height="20" viewBox="0 0 21 20" fill="none" xmlns="http://www.w3.org/2000/svg">
<path d="M20.0399 10.222C20.0413 4.93616 15.692 0.643239 10.3318 0.639531C4.97147 0.635822 0.619965 4.92273 0.618574 10.2085C0.617354 14.8432 3.9568 18.7045 8.38463 19.5981L8.38634 13.0866L6.44421 13.0853L6.44497 10.2125L8.3871 10.2139L8.38773 7.81996C8.38822 5.97185 9.91319 4.46952 11.7873 4.47082L14.215 4.4725L14.2143 7.34521L12.2721 7.34387C11.738 7.3435 11.3009 7.7741 11.3008 8.30076L11.3003 10.2159L14.2135 10.2179L14.2127 13.0906L11.2995 13.0886L11.2978 19.7437C16.2018 19.2683 20.0386 15.1917 20.0399 10.222Z" fill="white"/>
</svg>
