<svg width="17" height="16" viewBox="0 0 17 16" fill="none" xmlns="http://www.w3.org/2000/svg">
<g clip-path="url(#clip0_372_252)">
<path d="M15.4861 15.9091L9.7934 10.3938C9.3416 10.7439 8.82203 11.0212 8.23469 11.2254C7.64735 11.4297 7.02236 11.5318 6.35972 11.5318C4.71818 11.5318 3.32905 10.9809 2.19232 9.87898C1.0556 8.77707 0.486931 7.4312 0.486329 5.84136C0.485726 4.25153 1.05439 2.90566 2.19232 1.80375C3.33026 0.701835 4.71939 0.150879 6.35972 0.150879C8.00006 0.150879 9.38949 0.701835 10.528 1.80375C11.6666 2.90566 12.2349 4.25153 12.2331 5.84136C12.2331 6.48337 12.1277 7.08889 11.9169 7.65794C11.706 8.22699 11.4199 8.73038 11.0584 9.16811L16.7511 14.6835L15.4861 15.9091ZM6.35972 9.78093C7.48922 9.78093 8.44945 9.39806 9.2404 8.63233C10.0313 7.86659 10.4265 6.93627 10.4259 5.84136C10.4253 4.74646 10.0301 3.81643 9.2404 3.05128C8.45065 2.28612 7.49043 1.90296 6.35972 1.9018C5.22902 1.90063 4.2691 2.28379 3.47995 3.05128C2.69081 3.81876 2.29533 4.74879 2.29353 5.84136C2.29172 6.93394 2.68719 7.86426 3.47995 8.63233C4.27271 9.4004 5.23263 9.78327 6.35972 9.78093Z" fill="white"/>
</g>
<defs>
<clipPath id="clip0_372_252">
<rect width="17" height="16" fill="white"/>
</clipPath>
</defs>
</svg>
