<svg width="20" height="25" viewBox="0 0 20 25" fill="none" xmlns="http://www.w3.org/2000/svg">
<path d="M16.5571 8.97059H14.2857V1.91176C14.2857 1.13529 13.6429 0.5 12.8571 0.5H7.14286C6.35714 0.5 5.71429 1.13529 5.71429 1.91176V8.97059H3.44286C2.17143 8.97059 1.52857 10.4953 2.42857 11.3847L8.98571 17.8647C9.54286 18.4153 10.4429 18.4153 11 17.8647L17.5571 11.3847C18.4571 10.4953 17.8286 8.97059 16.5571 8.97059ZM0 23.0882C0 23.8647 0.642857 24.5 1.42857 24.5H18.5714C19.3571 24.5 20 23.8647 20 23.0882C20 22.3118 19.3571 21.6765 18.5714 21.6765H1.42857C0.642857 21.6765 0 22.3118 0 23.0882Z" fill="white"/>
</svg>
